<?xml version="1.0" encoding="utf-8"?>
<!-- Generator: Adobe Illustrator 27.5.0, SVG Export Plug-In . SVG Version: 6.00 Build 0)  -->
<svg version="1.1" xmlns="http://www.w3.org/2000/svg" xmlns:xlink="http://www.w3.org/1999/xlink" x="0px" y="0px"
	 viewBox="0 0 750 500" style="enable-background:new 0 0 750 500;" xml:space="preserve">
<g id="BACKGROUND">
	<rect style="fill:#FFFFFF;" width="750" height="500"/>
</g>
<g id="OBJECTS">
	<g>
		<g>
			<path style="opacity:0.4;fill:#FE92DE;" d="M131.37,392.157c0,0-91.196-38.824-78.92-91.482
				c12.276-52.658,114.705,17.565,114.705,17.565s-37.62-109.707-3.122-166.231s73.816-30.56,121.367,38.931
				c0,0,25.333-128.563,117.768-133.884c92.435-5.321,70.224,130.498,70.224,130.498s28.984-82.214,85.074-80.367
				c73.499,2.421,26.449,163.847,17.699,188.402c0,0,20.524-54.738,67.866-45.177c47.831,9.66,2.167,155.615-7.141,158.203
				C627.581,411.203,201.083,432.835,131.37,392.157z"/>
			
				<ellipse transform="matrix(0.7071 -0.7071 0.7071 0.7071 -52.6466 123.1273)" style="opacity:0.4;fill:#FE92DE;" cx="122.304" cy="125.114" rx="35.087" ry="35.087"/>
			<circle style="opacity:0.4;fill:#FE92DE;" cx="639.749" cy="212.612" r="28.949"/>
			<circle style="opacity:0.4;fill:#FE92DE;" cx="610.7" cy="153.11" r="9.833"/>
		</g>
		<g>
			<g>
				<g>
					<rect x="226.381" y="93.888" style="fill:#FFFFFF;stroke:#283CFF;stroke-miterlimit:10;" width="280.892" height="206.933"/>
					<rect x="226.381" y="287.299" style="fill:#95ADF3;stroke:#283CFF;stroke-miterlimit:10;" width="280.892" height="13.523"/>
				</g>
				<g>
					<g>
						<line style="fill:none;stroke:#283CFF;stroke-miterlimit:10;" x1="248.861" y1="262.884" x2="345.43" y2="262.884"/>
						<line style="fill:none;stroke:#283CFF;stroke-miterlimit:10;" x1="248.861" y1="251.684" x2="332.708" y2="251.684"/>
						<line style="fill:none;stroke:#283CFF;stroke-miterlimit:10;" x1="248.861" y1="240.484" x2="343.756" y2="240.484"/>
						<line style="fill:none;stroke:#283CFF;stroke-miterlimit:10;" x1="248.861" y1="229.285" x2="323.633" y2="229.285"/>
						<line style="fill:none;stroke:#283CFF;stroke-miterlimit:10;" x1="248.861" y1="218.085" x2="307.771" y2="218.085"/>
					</g>
					<g>
						<g>
							<rect x="248.861" y="107.187" style="fill:none;stroke:#283CFF;stroke-miterlimit:10;" width="44.215" height="31.618"/>
							<rect x="283.248" y="131.907" style="fill:none;stroke:#283CFF;stroke-miterlimit:10;" width="41.924" height="27.883"/>
							<rect x="440.44" y="147" style="fill:none;stroke:#283CFF;stroke-miterlimit:10;" width="37.747" height="27.883"/>
							<rect x="357.491" y="109.608" style="fill:none;stroke:#283CFF;stroke-miterlimit:10;" width="43.805" height="26.504"/>
						</g>
						<g>
							<path style="fill:#FFC524;" d="M275.004,107.724c0,2.447-1.984,4.431-4.431,4.431s-4.431-1.984-4.431-4.431
								c0-2.447,1.984-4.431,4.431-4.431S275.004,105.276,275.004,107.724z"/>
							<path style="fill:#FFC524;" d="M307.771,131.907c0,2.322-1.882,4.205-4.205,4.205c-2.322,0-4.205-1.883-4.205-4.205
								c0-2.322,1.883-4.205,4.205-4.205C305.888,127.702,307.771,129.585,307.771,131.907z"/>
							<path style="fill:#FE92DE;" d="M463.519,147c0,2.322-1.883,4.205-4.205,4.205s-4.205-1.882-4.205-4.205
								c0-2.322,1.883-4.205,4.205-4.205S463.519,144.678,463.519,147z"/>
							<path style="fill:#F35530;" d="M380.743,109.608c0,2.447-1.984,4.431-4.431,4.431s-4.431-1.984-4.431-4.431
								c0-2.447,1.984-4.431,4.431-4.431S380.743,107.16,380.743,109.608z"/>
						</g>
					</g>
				</g>
			</g>
			<g>
				<g>
					<g>
						<g>
							<circle style="fill:none;stroke:#283CFF;stroke-miterlimit:10;" cx="674.778" cy="295.307" r="17.084"/>
							<circle style="fill:none;stroke:#283CFF;stroke-miterlimit:10;" cx="636.89" cy="317.149" r="14.669"/>
							
								<ellipse transform="matrix(0.2286 -0.9735 0.9735 0.2286 209.3673 922.4274)" style="fill:none;stroke:#283CFF;stroke-miterlimit:10;" cx="686.732" cy="329.104" rx="11.955" ry="11.955"/>
						</g>
						<g>
							<line style="fill:none;stroke:#283CFF;stroke-miterlimit:10;" x1="650.583" y1="382.261" x2="678.203" y2="278.531"/>
							<line style="fill:none;stroke:#283CFF;stroke-miterlimit:10;" x1="627.555" y1="305.832" x2="660.506" y2="344.995"/>
							<line style="fill:none;stroke:#283CFF;stroke-miterlimit:10;" x1="661.75" y1="340.323" x2="697.206" y2="323.338"/>
						</g>
					</g>
					<path style="fill:#C9C9C9;" d="M664.033,424.733l-23.634-0.458c-2.134-0.041-3.908-1.656-4.149-3.777l-4.258-37.487
						c-0.287-2.526,1.689-4.74,4.232-4.74h32.562c2.558,0,4.539,2.24,4.227,4.779l-4.669,37.945
						C668.076,423.162,666.215,424.776,664.033,424.733z"/>
				</g>
				<g>
					<g>
						<ellipse style="fill:none;stroke:#283CFF;stroke-miterlimit:10;" cx="276.498" cy="347.164" rx="8.901" ry="31.925"/>
						<path style="fill:none;stroke:#283CFF;stroke-miterlimit:10;" d="M290.231,360.857c-3.151,11.255-8.249,19.666-11.386,18.788
							c-3.138-0.878-3.127-10.714,0.023-21.969c3.151-11.255,8.248-19.666,11.386-18.788
							C293.392,339.766,293.382,349.602,290.231,360.857z"/>
						<g>
							<g>
								
									<ellipse transform="matrix(0.9347 -0.3555 0.3555 0.9347 -108.2186 117.0728)" style="fill:none;stroke:#283CFF;stroke-miterlimit:10;" cx="264.453" cy="353.006" rx="7.842" ry="28.126"/>
								<line style="fill:none;stroke:#283CFF;stroke-miterlimit:10;" x1="254.454" y1="326.717" x2="274.452" y2="379.295"/>
							</g>
							<g>
								<line style="fill:none;stroke:#283CFF;stroke-miterlimit:10;" x1="253.475" y1="343.963" x2="262.658" y2="348.285"/>
								<line style="fill:none;stroke:#283CFF;stroke-miterlimit:10;" x1="255.271" y1="350.515" x2="265.225" y2="355.034"/>
								<line style="fill:none;stroke:#283CFF;stroke-miterlimit:10;" x1="258.066" y1="358.173" x2="268.02" y2="362.691"/>
							</g>
						</g>
					</g>
					<g>
						
							<ellipse transform="matrix(0.7071 -0.7071 0.7071 0.7071 -203.5428 313.4395)" style="fill:#C9C9C9;" cx="276.583" cy="402.418" rx="22.71" ry="22.71"/>
						<path style="fill:#C9C9C9;" d="M290.598,384.004h-28.03c-2.429,0-4.399-1.969-4.399-4.399l0,0
							c0-2.429,1.969-4.399,4.399-4.399h28.03c2.429,0,4.399,1.969,4.399,4.399l0,0
							C294.997,382.035,293.028,384.004,290.598,384.004z"/>
					</g>
				</g>
				<g>
					<g>
						<g>
							<path style="fill:none;stroke:#283CFF;stroke-miterlimit:10;" d="M247.746,314.471L247.746,314.471
								c-6.399-2.234-9.777-9.232-7.543-15.632l6.205-17.777c2.234-6.399,9.232-9.776,15.631-7.543l0,0
								c6.4,2.233,9.777,9.232,7.543,15.631l-6.205,17.777C261.144,313.328,254.146,316.705,247.746,314.471z"/>
							<line style="fill:none;stroke:#283CFF;stroke-miterlimit:10;" x1="262.04" y1="273.519" x2="226.381" y2="375.684"/>
							<g>
								<polyline style="fill:none;stroke:#283CFF;stroke-miterlimit:10;" points="246.746,280.208 254.518,295.069 
									268.854,291.238 								"/>
								<polyline style="fill:none;stroke:#283CFF;stroke-miterlimit:10;" points="243.754,288.778 251.527,303.639 
									265.863,299.808 								"/>
								<polyline style="fill:none;stroke:#283CFF;stroke-miterlimit:10;" points="240.993,296.689 248.766,311.551 263.102,307.72 
																	"/>
								<polyline style="fill:none;stroke:#283CFF;stroke-miterlimit:10;" points="250.535,275.361 257.049,287.817 
									270.244,284.291 								"/>
								<polyline style="fill:none;stroke:#283CFF;stroke-miterlimit:10;" points="256.104,272.819 259.81,279.906 268.007,277.716 
																	"/>
							</g>
						</g>
						<g>
							<path style="fill:none;stroke:#283CFF;stroke-miterlimit:10;" d="M224.669,298.149L224.669,298.149
								c-7.829,0.114-14.269-6.14-14.383-13.969l-0.317-21.75c-0.114-7.829,6.14-14.269,13.969-14.383l0,0
								c7.829-0.114,14.269,6.14,14.383,13.969l0.317,21.75C238.753,291.595,232.498,298.034,224.669,298.149z"/>
							<line style="fill:none;stroke:#283CFF;stroke-miterlimit:10;" x1="225.762" y1="373.04" x2="223.938" y2="248.046"/>
							<g>
								<polyline style="fill:none;stroke:#283CFF;stroke-miterlimit:10;" points="209.995,261.368 224.322,274.411 
									238.358,264.569 								"/>
								<polyline style="fill:none;stroke:#283CFF;stroke-miterlimit:10;" points="210.148,271.854 224.475,284.897 
									238.511,275.055 								"/>
								<polyline style="fill:none;stroke:#283CFF;stroke-miterlimit:10;" points="210.29,281.533 224.617,294.576 238.652,284.733 
																	"/>
								<polyline style="fill:none;stroke:#283CFF;stroke-miterlimit:10;" points="212.184,254.607 224.193,265.539 237.111,256.48 
																	"/>
								<polyline style="fill:none;stroke:#283CFF;stroke-miterlimit:10;" points="217.219,249.64 224.052,255.86 232.076,250.233 
																	"/>
							</g>
						</g>
						<g>
							<path style="fill:none;stroke:#283CFF;stroke-miterlimit:10;" d="M204.45,321.956l-0.537,0.159
								c-5.269,1.566-10.809-1.436-12.375-6.705l-4.631-15.585c-1.566-5.269,1.436-10.809,6.705-12.375l0.537-0.159
								c5.269-1.566,10.809,1.436,12.375,6.705l4.631,15.585C212.721,314.85,209.719,320.39,204.45,321.956z"/>
							<line style="fill:none;stroke:#283CFF;stroke-miterlimit:10;" x1="219.579" y1="373.852" x2="193.881" y2="287.371"/>
							<g>
								<polyline style="fill:none;stroke:#283CFF;stroke-miterlimit:10;" points="186.799,299.351 199.302,305.612 
									207.129,296.031 								"/>
								<polyline style="fill:none;stroke:#283CFF;stroke-miterlimit:10;" points="188.955,306.606 201.457,312.867 
									209.285,303.286 								"/>
								<polyline style="fill:none;stroke:#283CFF;stroke-miterlimit:10;" points="190.945,313.302 203.447,319.564 
									211.275,309.983 								"/>
								<polyline style="fill:none;stroke:#283CFF;stroke-miterlimit:10;" points="186.998,294.226 197.477,299.474 
									204.682,290.655 								"/>
								<polyline style="fill:none;stroke:#283CFF;stroke-miterlimit:10;" points="189.525,289.791 195.488,292.777 
									199.963,287.299 								"/>
							</g>
						</g>
					</g>
					<path style="fill:#C9C9C9;" d="M228.98,425.128h-9.342c-5.782,0-10.469-4.687-10.469-10.469v-49.156
						c0-5.782,4.687-10.469,10.469-10.469h9.342c5.782,0,10.469,4.687,10.469,10.469v49.156
						C239.449,420.44,234.762,425.128,228.98,425.128z"/>
				</g>
			</g>
		</g>
		<g>
			<g>
				<g>
					<g>
						<g>
							<rect x="160.629" y="391.685" style="fill:#283CFF;stroke:#131430;stroke-miterlimit:10;" width="14.731" height="26.546"/>
							<g>
								<polygon style="fill:#131430;" points="180.682,409.715 157.702,411.022 157.392,434.403 202.222,434.993 182.106,418.152 
																	"/>
								<g>
									<line style="fill:none;stroke:#283CFF;stroke-miterlimit:10;" x1="186.613" y1="421.925" x2="182.223" y2="426.117"/>
									<line style="fill:none;stroke:#283CFF;stroke-miterlimit:10;" x1="189.501" y1="424.43" x2="184.577" y2="428.786"/>
								</g>
								<path style="fill:none;stroke:#FFFFFF;stroke-miterlimit:10;" d="M175.287,420.344c0,3.188-2.584,5.772-5.772,5.772
									c-3.188,0-5.772-2.584-5.772-5.772c0-3.188,2.584-5.772,5.772-5.772C172.703,414.572,175.287,417.157,175.287,420.344z"/>
							</g>
						</g>
						<g>
							<polygon style="fill:#50CCBC;" points="180.424,393.552 156.568,393.552 149.223,272.672 149.223,238.15 181.344,235.911 
															"/>
							<polyline style="fill:none;stroke:#131430;stroke-miterlimit:10;" points="181.282,246.665 180.424,393.552 156.568,393.552 
								150.408,292.178 							"/>
						</g>
					</g>
					<g>
						<g>
							<polygon style="fill:#283CFF;stroke:#131430;stroke-miterlimit:10;" points="105.031,389.482 99.414,419.169 
								115.218,418.973 119.922,389.952 							"/>
							<g>
								<polygon style="fill:#131430;" points="96.037,411.599 119.016,412.906 119.326,436.287 74.496,436.877 94.612,420.036 
																	"/>
								<g>
									<line style="fill:none;stroke:#283CFF;stroke-miterlimit:10;" x1="90.105" y1="423.809" x2="94.495" y2="428.001"/>
									<line style="fill:none;stroke:#283CFF;stroke-miterlimit:10;" x1="87.217" y1="426.314" x2="92.142" y2="430.67"/>
								</g>
								<path style="fill:none;stroke:#FFFFFF;stroke-miterlimit:10;" d="M101.431,422.228c0,3.188,2.584,5.772,5.772,5.772
									c3.188,0,5.772-2.584,5.772-5.772c0-3.188-2.584-5.772-5.772-5.772C104.015,416.456,101.431,419.041,101.431,422.228z"/>
							</g>
						</g>
						<g>
							<polygon style="fill:#50CCBC;" points="97.442,391.097 123.495,393.552 156.384,269.67 166.818,265.983 168.046,235.911 
								127.395,240.746 							"/>
							<g>
								<path style="fill:none;stroke:#131430;stroke-miterlimit:10;" d="M123.495,265.983c0,0,18.413-1.019,21.022-16.364"/>
								<polyline style="fill:none;stroke:#131430;stroke-miterlimit:10;" points="166.855,262.884 157.703,264.7 123.495,393.552 
									97.442,391.097 126.216,246.665 								"/>
							</g>
						</g>
					</g>
				</g>
				<g>
					<g>
						<g>
							<path style="fill:#FFC524;" d="M194.023,201.653l4.742,12.748l-8.079,8.15l-16.102-4.987c0,0-32.916,3.027-32.987,3.097
								c-0.071,0.07-12.299-26.243-12.299-26.243l6.685-15.352l15.167-3.625C151.152,175.441,178.67,172.803,194.023,201.653"/>
							<path style="fill:none;stroke:#131430;stroke-miterlimit:10;" d="M151.152,175.441c0,0,27.518-2.638,42.871,26.212"/>
						</g>
						<polygon style="fill:#FFFFFF;stroke:#131430;stroke-miterlimit:10;" points="153.527,184.21 147.265,192.98 143.039,176.963 
							150.241,171.99 158.627,171.99 164.375,176.963 160.784,192.98 						"/>
						<g>
							<path style="fill:#FFC524;" d="M126.137,231.796l-1.581,15.383c15.958,3.019,58.225-0.514,58.225-0.514l-4.92-47.791
								l-49.279-2.172L126.137,231.796z"/>
							<path style="fill:none;stroke:#131430;stroke-miterlimit:10;" d="M126.137,231.796l-1.581,15.383
								c15.958,3.019,58.225-0.514,58.225-0.514l-4.92-47.791"/>
						</g>
						<path style="fill:#FFC524;" d="M143.581,177.156c-32.592,5.894-51.517,38.107-53.386,47.596
							c-2.498,12.682,5.032,25.015,19.696,21.214c12.365-3.206,19.004-10.366,25.265-17.875l-8.181-14.802l9.01-12.634l4.96-6.955
							l-1.801-12.338L143.581,177.156z"/>
					</g>
					<g>
						<g>
							<polygon style="fill:#F35530;" points="172.293,153.788 176.143,152.787 172.383,148.02 							"/>
							<path style="fill:#283CFF;" d="M172.301,144.618c-0.039-5.479-4.008-9.934-8.821-9.899l-7.239,0.052
								c-4.812,0.034-8.717,4.545-8.678,10.024l0.08,11.221c0.002,0.316,0.021,0.628,0.049,0.937
								c-0.076,0.331-0.119,0.675-0.116,1.029l0.049,6.831l0.003,0.381l0.01,1.353h-0.004l0.043,7.638
								c0.018,3.144,2.06,5.698,4.539,5.676l2.872-0.026c2.479-0.022,4.492-2.613,4.474-5.757l-0.011-2.018
								c0.001-0.041,0.012-0.079,0.011-0.12l-0.043-6.045l4.186-0.03c4.812-0.034,8.718-4.545,8.679-10.024L172.301,144.618z"/>
							<g>
								<path style="fill:#131430;" d="M163.949,150.094c-0.138,0.88,0.464,1.704,1.343,1.842c0.88,0.138,1.704-0.464,1.842-1.343
									c0.138-0.88-0.464-1.704-1.343-1.842C164.912,148.613,164.087,149.215,163.949,150.094z"/>
								<g>
									<g>
										<path style="fill:#131430;" d="M170.957,160.556c-0.12,0.046-0.249,0.074-0.375,0.097
											c-0.032,0.006-0.064,0.01-0.096,0.016c-0.101,0.019,0.189-0.018,0.033-0.005c-0.07,0.006-0.139,0.013-0.209,0.015
											c-0.183,0.007-0.362-0.008-0.545-0.022c-0.049-0.006-0.026-0.003,0.069,0.009c-0.026-0.004-0.053-0.008-0.079-0.013
											c-0.054-0.011-0.108-0.02-0.162-0.032c-0.114-0.026-0.227-0.057-0.337-0.095c-0.059-0.02-0.116-0.042-0.174-0.064
											c-0.122-0.046,0.102,0.052-0.028-0.013c-0.123-0.061-0.245-0.121-0.363-0.192c-0.127-0.076-0.252-0.159-0.369-0.25
											c0.092,0.071-0.042-0.037-0.059-0.052c-0.063-0.054-0.125-0.109-0.186-0.166c-0.268-0.253-0.483-0.51-0.681-0.792
											c-0.193-0.276-0.547-0.405-0.855-0.224c-0.273,0.16-0.419,0.577-0.224,0.855c0.657,0.94,1.504,1.733,2.607,2.104
											c0.65,0.218,1.354,0.25,2.025,0.12c0.115-0.022,0.232-0.048,0.341-0.091c0.315-0.122,0.533-0.42,0.437-0.769
											C171.643,160.692,171.273,160.433,170.957,160.556L170.957,160.556z"/>
									</g>
								</g>
							</g>
							<path style="fill:#131430;" d="M147.613,163.265c0,0-10.939,1.041-13.761-11.166c-2.822-12.206,4.017-23.526,18.258-25.17
								c0,0,9.292-10.772,16.879-7.121c7.587,3.652-3.447,13.146-3.447,13.146s8.16-7.851,10.601-4.564
								c2.441,3.286-2.69,10.224-7.154,11.137c-4.463,0.913-14.414-0.913-16.057,4.199s-0.365,9.585-3.834,11.881
								c-2.348,1.554-1.522,2.373-1.522,2.373L147.613,163.265z"/>
							<g>
								<path style="fill:#283CFF;" d="M138.48,154.87c0.022,3.157,2.621,5.698,5.804,5.675c3.183-0.023,5.745-2.6,5.722-5.757
									c-0.023-3.157-2.621-5.698-5.804-5.675C141.019,149.135,138.457,151.713,138.48,154.87z"/>
								<g>
									<g>
										<path style="fill:#131430;" d="M148.053,155.561c0.028-0.498-0.057-1.028-0.195-1.504c-0.285-0.981-0.92-1.867-1.872-2.29
											c-0.749-0.333-1.568-0.409-2.379-0.319c-0.357,0.04-0.706,0.288-0.688,0.688c0.015,0.339,0.305,0.731,0.688,0.688
											c0.345-0.038,0.693-0.052,1.039-0.019c0.034,0.003,0.073,0.014,0.107,0.011c-0.158,0.012-0.107-0.017-0.038-0.004
											c0.072,0.013,0.145,0.025,0.216,0.042c0.128,0.029,0.254,0.066,0.377,0.111c0.026,0.01,0.056,0.028,0.083,0.032
											c-0.155-0.023-0.109-0.05-0.036-0.014c0.051,0.025,0.102,0.049,0.151,0.076c0.105,0.057,0.201,0.124,0.3,0.191
											c0.054,0.036,0.016,0.054-0.065-0.05c0.017,0.022,0.05,0.041,0.071,0.059c0.038,0.033,0.076,0.067,0.112,0.102
											c0.078,0.076,0.147,0.158,0.219,0.241c0.065,0.075-0.055-0.072-0.054-0.071c0.012,0.024,0.035,0.047,0.051,0.07
											c0.027,0.039,0.053,0.078,0.079,0.118c0.054,0.086,0.104,0.175,0.15,0.267c0.02,0.041,0.039,0.082,0.058,0.123
											c0.069,0.148-0.064-0.168-0.007-0.016c0.034,0.089,0.066,0.178,0.094,0.269c0.049,0.16,0.088,0.323,0.118,0.488
											c0.014,0.078,0.04,0.356,0.011,0.047c0.007,0.069,0.016,0.137,0.022,0.206c0.013,0.152,0.021,0.306,0.013,0.458
											c-0.02,0.36,0.331,0.704,0.688,0.688C147.755,156.232,148.031,155.947,148.053,155.561L148.053,155.561z"/>
									</g>
								</g>
							</g>
						</g>
					</g>
					<g>
						<g>
							<path style="fill:#131430;" d="M162.67,215.214l-8.646-0.972c-1.907-0.214-3.279-1.934-3.065-3.841l2.473-21.991
								c0.215-1.907,1.934-3.279,3.841-3.065l8.646,0.972c1.907,0.214,3.279,1.934,3.065,3.841l-2.473,21.991
								C166.297,214.057,164.577,215.429,162.67,215.214z"/>
							<path style="fill:#C9C9C9;" d="M156.107,191.338L156.107,191.338c-0.685-0.077-1.179-0.695-1.102-1.381l0.216-1.919
								c0.077-0.685,0.695-1.178,1.381-1.102l0,0c0.685,0.077,1.178,0.695,1.102,1.381l-0.216,1.919
								C157.41,190.921,156.792,191.415,156.107,191.338z"/>
						</g>
						<g>
							<g>
								<path style="fill:#283CFF;stroke:#131430;stroke-miterlimit:10;" d="M169.699,205.415c-0.171-0.794-4.483-0.012-7.094,0.455
									c2.686-0.614,7.104-1.911,7.106-2.684c0.004-1.492-5.826-0.686-8.544-0.048c2.757-0.842,8.517-2.395,7.596-3.259
									c-1.534-1.438-9.776,0.216-9.776,0.216s4.508-1.294,7.116-1.438c2.605-0.144,2.732-1.869,0-1.941
									c-15.559-0.409-23.002,7.188-32.643,13.083c-0.667,0.408-1.368,0.813-2.09,1.215l6.852,13.383
									c0.141-0.17,0.282-0.34,0.424-0.509c7.477-8.913,15.957-12.939,20.989-14.74
									C164.665,207.348,169.997,206.797,169.699,205.415z"/>
								<path style="fill:#FFFFFF;stroke:#131430;stroke-miterlimit:10;" d="M138.645,223.889c0.42-0.501,0.845-0.982,1.271-1.452
									l-7.3-12.132c-2.169,1.273-3.42,1.897-5.915,3.064l8.269,14.942C136.58,226.419,137.043,225.799,138.645,223.889z"/>
							</g>
							<path style="fill:none;stroke:#131430;stroke-miterlimit:10;" d="M143.581,177.156
								c-32.592,5.894-51.517,38.107-53.386,47.596c-2.498,12.682,5.032,25.015,19.696,21.214
								c12.365-3.206,19.004-10.366,25.265-17.875l-8.181-14.802c-9.069,4.396-19.384,7.87-19.384,7.87"/>
						</g>
					</g>
					<g>
						<path style="fill:#283CFF;stroke:#131430;stroke-miterlimit:10;" d="M232.584,168.109c2.218-0.863,10.002-3.738,8.118-4.744
							c-0.931-0.497-6.137,0.961-8.322,1.864c2.946-1.45,8.588-4.023,8.226-4.887c-0.863-2.056-10.181,2.118-10.181,2.118
							s9.855-3.584,8.471-5.376c-0.586-0.758-6.847,1.69-9.692,2.705c4.071-2.274,10.827-5.932,3.38-3.924
							c-10.577,2.852-15.301,7.355-15.301,7.355s4.457-6.182,1.725-5.541c-2.732,0.641-9.779,11.148-9.779,11.148
							c-4.563,5.456-7.954,11.789-10.464,17.924l17.226,4.804c0.163-0.664,0.328-1.327,0.495-1.986
							C220.722,172.934,230.366,168.971,232.584,168.109z"/>
						<path style="fill:#FFFFFF;stroke:#131430;stroke-miterlimit:10;" d="M200.375,183.064c-1.071,2.3-2.007,4.599-2.831,6.848
							l17.557,5.363c0.447-1.912,0.906-3.822,1.385-5.705c0.135-0.53,0.276-1.047,0.421-1.552L200.375,183.064z"/>
						<path style="fill:#FFC524;stroke:#131430;stroke-miterlimit:10;" d="M179.923,218.921
							c8.626,10.639,18.958,12.731,24.277,9.389c4.701-2.953,7.382-17.953,10.865-32.883l-17.538-5.469
							c-4.503,12.302-5.547,23.005-5.547,23.005"/>
					</g>
				</g>
			</g>
			<g>
				<g>
					<g>
						<g>
							<polygon style="fill:#50CCBC;stroke:#131430;stroke-miterlimit:10;" points="547.205,405.478 544.136,326.3 560.664,324.765 
								561.891,409.461 							"/>
							<g>
								<path style="fill:#131430;" d="M564.699,431.329l0.012-31.454l-20.025,4.22c0,0,0.268,14.642-6.498,24.196
									c-6.766,9.555-0.412,9.179,4.364,7.607c7.637-2.513,17.401-14.727,17.401-14.727s-0.039,10.051,0.997,10.918
									C561.986,432.955,564.249,432.984,564.699,431.329z"/>
								<g>
									<line style="fill:none;stroke:#283CFF;stroke-miterlimit:10;" x1="541.065" y1="419.399" x2="547.179" y2="418.867"/>
									<line style="fill:none;stroke:#283CFF;stroke-miterlimit:10;" x1="541.679" y1="414.667" x2="547.794" y2="414.134"/>
									<line style="fill:none;stroke:#283CFF;stroke-miterlimit:10;" x1="541.988" y1="409.96" x2="548.103" y2="409.428"/>
								</g>
							</g>
						</g>
						<g>
							<polygon style="fill:#50CCBC;stroke:#131430;stroke-miterlimit:10;" points="577.236,324.765 593.808,408.615 
								608.181,406.399 594.115,322.398 							"/>
							<g>
								<path style="fill:#131430;" d="M595.828,433.746l-5.711-30.932l20.458,0.521c0,0,2.389,14.448,10.774,22.618
									c8.385,8.17,2.068,8.952-2.914,8.272c-7.966-1.088-19.782-11.33-19.782-11.33s1.859,9.878,0.998,10.918
									C598.791,434.852,596.57,435.291,595.828,433.746z"/>
								<g>
									<line style="fill:none;stroke:#283CFF;stroke-miterlimit:10;" x1="616.91" y1="417.73" x2="610.8" y2="418.315"/>
									<line style="fill:none;stroke:#283CFF;stroke-miterlimit:10;" x1="615.448" y1="413.187" x2="609.338" y2="413.772"/>
									<line style="fill:none;stroke:#283CFF;stroke-miterlimit:10;" x1="614.291" y1="408.615" x2="608.181" y2="409.199"/>
								</g>
							</g>
						</g>
					</g>
					<g>
						<path style="fill:#131430;stroke:#131430;stroke-miterlimit:10;" d="M536.112,339.189h64.754c0,0-2.09-78.871-22.374-103.73
							h-35.389C543.104,235.46,522.916,282.414,536.112,339.189z"/>
						<path style="fill:#FFFFFF;stroke:#131430;stroke-miterlimit:10;" d="M581.839,197.73c0,0,3.99,36.502,3.494,38.804
							c-0.496,2.302-10.245,3.836-24.055,4.028c-13.81,0.191-24.398-3.567-24.726-5.102c-0.328-1.535,0.942-28.507,0.942-28.507
							s3.836-23.46,9.053-25.915c5.217-2.455,24.654-1.091,24.654-1.091L581.839,197.73z"/>
					</g>
				</g>
				<g>
					<g>
						<path style="fill:#50CCBC;stroke:#131430;stroke-miterlimit:10;" d="M580.07,218.137c-11.06-2.208-22.902-5.325-26.818-5.797
							c-6.798-0.818-15.707,5.524-16.525,7.365c-0.818,1.841,1.432,7.161,2.66,7.161s6.522-5.524,8.818-7.57
							c2.295-2.046,8.459,0,8.459,0s-9.632,1.637-8.34,4.296c1.293,2.66,5.609-2.251,16.238,0.614
							c3.707,0.999,8.339,4.239,13.552,7.574L580.07,218.137z"/>
						<g>
							<g>
								<g>
									<path style="fill:#FFFFFF;" d="M592.173,220.096c-1.635-6.77-13.681-19.793-13.681-19.793l-1.103-9.855l15.191,8.641
										l12.173,20.059l-6.649,2.296L592.173,220.096"/>
									<path style="fill:none;stroke:#131430;stroke-miterlimit:10;" d="M578.493,200.304c0,0,12.046,13.022,13.681,19.793"/>
								</g>
								<g>
									<path style="fill:#FFFFFF;" d="M599.741,220.115c-3.766,0.77-11.331-0.324-19.352-1.914l-0.322,14.812
										c9.331,5.8,20.305,11.087,31.131,4.492c17.8-10.843-13.481-51.348-37.236-56.468l3.427,13.477L599.741,220.115z"/>
									<path style="fill:none;stroke:#131430;stroke-miterlimit:10;" d="M599.741,220.115c-3.766,0.77-11.331-0.324-19.352-1.914
										l-0.322,14.812c9.331,5.8,20.305,11.087,31.131,4.492c17.8-10.843-13.481-51.348-37.236-56.468"/>
								</g>
							</g>
							<g>
								<path style="fill:#FFFFFF;stroke:#131430;stroke-miterlimit:10;" d="M586.804,236.825l2.355-17.102
									c-3.617-0.51-7.666-1.274-11.733-2.126l-2.429,12.173C578.627,232.117,582.607,234.747,586.804,236.825z"/>
								<path style="fill:#131430;" d="M579.844,228.171c0,0.678-0.55,1.228-1.228,1.228c-0.678,0-1.227-0.55-1.227-1.228
									c0-0.678,0.55-1.228,1.227-1.228C579.295,226.943,579.844,227.493,579.844,228.171z"/>
							</g>
						</g>
					</g>
					<g>
						<g>
							<g>
								<line style="fill:none;stroke:#131430;stroke-miterlimit:10;" x1="560.052" y1="183.663" x2="560.052" y2="208.453"/>
								<path style="fill:#131430;" d="M558.235,199.714c-0.428,0.657-1.307,0.842-1.964,0.414
									c-0.657-0.428-0.842-1.307-0.414-1.964c0.428-0.657,1.307-0.842,1.964-0.414S558.663,199.057,558.235,199.714z"/>
								<path style="fill:#131430;" d="M558.235,193.317c-0.428,0.657-1.307,0.842-1.964,0.414
									c-0.657-0.428-0.842-1.307-0.414-1.964c0.428-0.657,1.307-0.842,1.964-0.414
									C558.477,191.781,558.663,192.66,558.235,193.317z"/>
							</g>
							<path style="fill:#FFFFFF;stroke:#131430;stroke-miterlimit:10;" d="M569.898,175.917c-3.76-1.302-7.473-1.161-9.846,0.126
								c-2.373-1.287-6.086-1.428-9.846-0.126c-5.545,1.921-9.082,6.245-7.899,9.658c1.182,3.413,6.636,4.623,12.181,2.703
								c2.248-0.779,4.157-1.956,5.564-3.303c1.407,1.348,3.316,2.525,5.564,3.303c5.545,1.921,10.998,0.71,12.181-2.703
								C578.979,182.162,575.443,177.838,569.898,175.917z"/>
						</g>
						<g>
							<g>
								<path style="fill:#131430;stroke:#131430;stroke-width:2;stroke-miterlimit:10;" d="M576.164,155.64
									c0,3.178-2.598,5.755-5.802,5.755c-3.204,0-5.802-2.576-5.802-5.755c0-3.178,2.597-5.755,5.802-5.755
									C573.567,149.885,576.164,152.462,576.164,155.64z"/>
								<path style="fill:#50CCBC;stroke:#131430;stroke-miterlimit:10;" d="M550.888,137.784h7.287
									c4.845,0,8.809,4.513,8.809,10.029v11.296c0,0.318-0.016,0.632-0.042,0.944c0.079,0.333,0.125,0.678,0.125,1.035v6.877
									v0.383v6.877c0,2.495-2.042,4.537-4.537,4.537h-2.891c-2.495,0-4.537-2.042-4.537-4.537v-6.086h-4.214
									c-4.845,0-8.809-4.513-8.809-10.029v-11.296C542.08,142.297,546.044,137.784,550.888,137.784z"/>
								<path style="fill:#131430;" d="M564.538,154.632l-0.808-8.026c0,0-24.48,3.069-32.416-8.823s0.404-16.599,4.439-15.926
									c4.035,0.673,8.753,6.456,8.753,6.456s-3.756-5.111,0-5.918c3.756-0.807,7.905,3.094,10.067,7.129
									c0,0,16.136-1.504,21.591,8.26c5.455,9.764,0.88,16.888-9.098,26.976l-0.512-5.839L564.538,154.632z"/>
							</g>
							<g>
								<g>
									<path style="fill:#131430;" d="M556.662,151.504c0,0.907-0.735,1.643-1.643,1.643c-0.907,0-1.643-0.736-1.643-1.643
										s0.735-1.643,1.643-1.643C555.927,149.861,556.662,150.596,556.662,151.504z"/>
									<path style="fill:#131430;" d="M545.908,151.263c0,0.774-0.628,1.402-1.402,1.402s-1.402-0.628-1.402-1.402
										c0-0.774,0.628-1.402,1.402-1.402S545.908,150.489,545.908,151.263z"/>
								</g>
								<g>
									<path style="fill:#FFFDFD;" d="M547.477,157.984c0,0,0.825,2.406,2.571,2.571c1.745,0.165,3.113-1.769,3.207-3.278
										L547.477,157.984z"/>
									<g>
										<path style="fill:#131430;" d="M546.874,158.15c0.325,0.938,0.902,1.85,1.695,2.454c1.381,1.051,3.203,0.542,4.242-0.735
											c0.605-0.744,0.997-1.631,1.069-2.592c0.023-0.309-0.306-0.664-0.625-0.625c-1.687,0.206-3.373,0.413-5.06,0.62
											c-0.24,0.029-0.479,0.059-0.718,0.088c-0.335,0.041-0.625,0.258-0.625,0.625c0,0.306,0.288,0.666,0.625,0.625
											c1.687-0.206,3.373-0.413,5.06-0.62c0.24-0.029,0.479-0.059,0.718-0.088c-0.208-0.208-0.417-0.417-0.625-0.625
											c-0.01,0.14-0.013,0.167-0.054,0.345c-0.036,0.154-0.081,0.305-0.136,0.453c-0.098,0.266-0.266,0.563-0.448,0.822
											c-0.324,0.459-0.805,0.852-1.332,0.991c-0.253,0.066-0.523,0.068-0.739,0.014c-0.073-0.018-0.145-0.04-0.215-0.066
											c-0.099-0.037,0.01,0.011-0.083-0.039c-0.129-0.069-0.257-0.143-0.372-0.234c0.067,0.052-0.049-0.046-0.067-0.061
											c-0.046-0.042-0.092-0.084-0.136-0.129c-0.101-0.101-0.197-0.209-0.286-0.321c0.058,0.072-0.031-0.042-0.047-0.064
											c-0.034-0.047-0.067-0.095-0.099-0.144c-0.071-0.107-0.138-0.216-0.202-0.327c-0.108-0.19-0.199-0.387-0.292-0.585
											c-0.045-0.095,0.053,0.141,0.012,0.028c-0.009-0.024-0.019-0.048-0.028-0.071c-0.009-0.023-0.018-0.047-0.026-0.071
											c-0.11-0.319-0.428-0.53-0.769-0.437C547,157.466,546.763,157.83,546.874,158.15z"/>
									</g>
								</g>
								<polygon style="fill:#F35530;" points="549.322,149.861 549.658,155.454 546.987,153.827 								"/>
							</g>
							<g>
								<path style="fill:#50CCBC;" d="M576.164,155.64c0,3.178-2.598,5.755-5.802,5.755c-3.204,0-5.802-2.576-5.802-5.755
									c0-3.178,2.597-5.755,5.802-5.755C573.567,149.885,576.164,152.462,576.164,155.64z"/>
								<g>
									<g>
										<path style="fill:#131430;" d="M567.913,156.4c-0.008-0.124-0.003-0.25,0.004-0.374c0.003-0.058,0.008-0.116,0.013-0.173
											c0.003-0.032,0.007-0.064,0.01-0.096c0.019-0.175-0.029,0.184-0.006,0.04c0.026-0.16,0.056-0.319,0.097-0.476
											c0.021-0.082,0.045-0.163,0.072-0.243c0.015-0.046,0.031-0.091,0.048-0.136c0.008-0.021,0.016-0.041,0.024-0.062
											c0.043-0.113-0.01,0.034-0.028,0.065c0.101-0.18,0.178-0.365,0.297-0.536c0.044-0.063,0.157-0.149-0.004,0
											c0.035-0.032,0.063-0.077,0.095-0.112c0.074-0.083,0.152-0.161,0.236-0.233c0.053-0.046,0.2-0.117,0.006-0.01
											c0.045-0.025,0.087-0.063,0.131-0.091c0.103-0.067,0.211-0.124,0.321-0.178c0.021-0.01,0.131-0.057,0.014-0.008
											c-0.124,0.052,0.027-0.009,0.05-0.018c0.07-0.025,0.14-0.048,0.212-0.069c0.075-0.021,0.151-0.04,0.227-0.056
											c0.026-0.006,0.053-0.011,0.079-0.016c0.06-0.011,0.23-0.007,0.022-0.007c0.179,0.001,0.36-0.033,0.54-0.033
											c0.204,0,0.407,0.013,0.609,0.034c0.359,0.037,0.704-0.343,0.688-0.688c-0.018-0.405-0.303-0.648-0.688-0.688
											c-1.265-0.131-2.653,0.152-3.496,1.177c-0.582,0.708-0.857,1.571-0.936,2.475c-0.015,0.169-0.024,0.341-0.014,0.51
											c0.023,0.359,0.3,0.705,0.688,0.688C567.578,157.072,567.937,156.785,567.913,156.4L567.913,156.4z"/>
									</g>
								</g>
							</g>
							<g>
								<path style="fill:#131430;" d="M582.76,133.955c0,1.568-1.271,2.839-2.839,2.839s-2.839-1.271-2.839-2.839
									c0-1.568,1.271-2.839,2.839-2.839S582.76,132.387,582.76,133.955z"/>
								
									<ellipse transform="matrix(0.7071 -0.7071 0.7071 0.7071 92.4995 456.0719)" style="fill:#131430;" cx="596.782" cy="116.378" rx="18.26" ry="11.739"/>
							</g>
						</g>
					</g>
				</g>
				<g>
					<g>
						<path style="fill:#C9C9C9;stroke:#131430;stroke-miterlimit:10;" d="M569.969,230.242h-43.92c-1.135,0-2.054-0.92-2.054-2.054
							l0,0c0-1.135,0.92-2.054,2.054-2.054h43.92c1.135,0,2.054,0.92,2.054,2.054l0,0
							C572.023,229.322,571.103,230.242,569.969,230.242z"/>
						<g>
							<path style="fill:#C9C9C9;stroke:#131430;stroke-miterlimit:10;" d="M537.928,230.242h-48.313c-4.286,0-7.76-3.474-7.76-7.76
								v-31.059c0-4.286,3.474-7.76,7.76-7.76h48.313c4.286,0,7.76,3.474,7.76,7.76v31.059
								C545.689,226.767,542.214,230.242,537.928,230.242z"/>
							<g>
								<path style="fill:#FFFFFF;" d="M518.967,206.952c0,2.869-2.326,5.195-5.195,5.195c-2.869,0-5.195-2.326-5.195-5.195
									c0-2.869,2.326-5.195,5.195-5.195C516.641,201.757,518.967,204.083,518.967,206.952z"/>
							</g>
						</g>
					</g>
					<g>
						<path style="fill:#50CCBC;stroke:#131430;stroke-miterlimit:10;" d="M505.407,229.49c1.497,2.116,1.997,4.168,1.116,4.583
							c-0.881,0.415-2.808-0.964-4.306-3.08c-1.497-2.116-1.997-4.168-1.116-4.583C501.983,225.995,503.91,227.374,505.407,229.49z"
							/>
						<path style="fill:#50CCBC;stroke:#131430;stroke-miterlimit:10;" d="M509.6,228.922c0.931,2.797,0.743,5.273-0.421,5.531
							c-1.164,0.258-2.862-1.8-3.793-4.596c-0.931-2.797-0.743-5.273,0.421-5.531C506.97,224.068,508.669,226.126,509.6,228.922z"/>
						<path style="fill:#50CCBC;stroke:#131430;stroke-miterlimit:10;" d="M513.18,228.922c0.931,2.797,0.743,5.273-0.421,5.531
							c-1.164,0.258-2.862-1.8-3.793-4.596c-0.931-2.797-0.743-5.273,0.421-5.531C510.551,224.068,512.249,226.126,513.18,228.922z"
							/>
						<path style="fill:#50CCBC;stroke:#131430;stroke-miterlimit:10;" d="M517.247,228.484c0.931,2.796,0.743,5.273-0.421,5.531
							c-1.164,0.258-2.862-1.8-3.794-4.596c-0.931-2.797-0.743-5.273,0.421-5.531C514.617,223.63,516.315,225.687,517.247,228.484z"
							/>
					</g>
				</g>
			</g>
			<g>
				<g>
					<g>
						<g>
							<g>
								<polygon style="fill:#FBC468;stroke:#131430;stroke-miterlimit:10;" points="367.46,396.224 364.766,426.318 
									380.476,424.581 382.326,395.239 								"/>
								<g>
									<polygon style="fill:#50CCBC;stroke:#131430;stroke-miterlimit:10;" points="359.883,417.819 382.862,419.125 
										383.173,442.507 338.343,443.097 358.458,426.256 									"/>
									<g>
										<line style="fill:none;stroke:#131430;stroke-miterlimit:10;" x1="353.951" y1="430.029" x2="358.341" y2="434.22"/>
										<line style="fill:none;stroke:#131430;stroke-miterlimit:10;" x1="351.064" y1="432.534" x2="355.988" y2="436.89"/>
									</g>
								</g>
							</g>
							<g>
								<polygon style="fill:#FBC468;stroke:#131430;stroke-miterlimit:10;" points="436.462,395.81 441.406,425.617 
									425.61,425.064 421.563,395.944 								"/>
								<g>
									<polygon style="fill:#50CCBC;stroke:#131430;stroke-miterlimit:10;" points="445.123,417.819 422.144,419.125 
										421.833,442.507 466.663,443.097 446.548,426.256 									"/>
									<g>
										<line style="fill:none;stroke:#131430;stroke-miterlimit:10;" x1="451.055" y1="430.029" x2="446.665" y2="434.22"/>
										<line style="fill:none;stroke:#131430;stroke-miterlimit:10;" x1="453.943" y1="432.534" x2="449.018" y2="436.89"/>
									</g>
								</g>
							</g>
						</g>
						<g>
							<polygon style="fill:#283CFF;stroke:#131430;stroke-miterlimit:10;" points="369.981,253.381 361.055,409.199 
								388.682,408.615 398.649,278.223 415.427,408.615 441.537,409.199 423.176,249.64 							"/>
							<line style="fill:none;stroke:#131430;stroke-miterlimit:10;" x1="398.572" y1="273.941" x2="404.24" y2="273.371"/>
						</g>
					</g>
					<g>
						<g>
							<path style="fill:#FFC524;stroke:#131430;stroke-miterlimit:10;" d="M324.059,184.177l4.799,0.96
								c-12.685-6.752-12.685-21.687-13.708-24.196c-1.023-2.509-17.8-15.495-19.846-13.265s8.262,12.113,8.262,12.113
								s-8.467,6.73-6.83,11.436c1.637,4.706,9.137,9.312,9.137,9.312l0.057,0.011l7.966,12.308L324.059,184.177z"/>
							<path style="fill:#F35530;" d="M450.182,192.542c-28.234-16.124-47.057-14.77-51.533-14.975
								c-4.477-0.204-16.392-0.818-30.816,7.57c-14.424,8.388-26.29,6.752-38.975,0c-1.88-1-3.475-2.183-4.842-3.476l-10.938,10.051
								c6.47,9.063,14.871,18.559,24.168,24.787c18.414,12.335,43.497-11.706,43.497-11.706h31.078l11.628,2.158l26.97,11.167
								l9.223,6.316l8.989,3.033C479.61,212.922,470.901,204.374,450.182,192.542z"/>
							<g>
								<path style="fill:none;stroke:#131430;stroke-miterlimit:10;" d="M307.093,182.611c-3.174-5.28-5.421-9.868-6.469-12.818"/>
								<line style="fill:none;stroke:#131430;stroke-miterlimit:10;" x1="317.637" y1="197.746" x2="329.63" y2="185.54"/>
							</g>
							<path style="fill:none;stroke:#131430;stroke-miterlimit:10;" d="M398.649,177.568c-4.477-0.204-16.392-0.818-30.816,7.57
								c-14.424,8.388-26.29,6.752-38.975,0c-1.88-1-3.475-2.183-4.842-3.476l-10.938,10.051
								c6.47,9.063,14.871,18.559,24.168,24.787c18.414,12.335,43.497-11.706,43.497-11.706"/>
						</g>
						<g>
							<path style="fill:#FFC524;" d="M457.587,238.787l-5.403-21.645l-16.89,15.688l0,0c0,0-5.369,3.578-5.52,4.706
								c-0.054,0.407-0.117,1.045-0.176,1.693l-3.267,3.195v0.298l-0.843,0.318c0,0-0.061,7.868,1.371,10.991
								c1.432,3.123,4.91,4.453,6.342,5.169c1.432,0.716,3.171,0.195,6.036-1.232c2.864-1.427,5.278-4.444,4.907-5.05
								c-0.343-0.56-4.212-1.377-5.94-0.553l10.342-6.259C451.926,243.519,454.934,241.085,457.587,238.787z M437.829,252.593
								c-0.399,0.325-0.404,0.31-0.211,0.128L437.829,252.593L437.829,252.593z"/>
							<path style="fill:none;stroke:#131430;stroke-miterlimit:10;" d="M438.759,235.775l-4.331,1.944c0,0-0.512,8.388-3.376,8.286
								c-2.864-0.102-1.125-9.411-1.125-9.411l5.366-3.763l2.656-2.13"/>
							<path style="fill:#F35530;" d="M450.963,192.991c-17.297-8.478-2.469,7.735-2.469,7.735l4.757,11.542
								c0,0-0.716,2.127-5.654,8.699l-2.409,2.431c0,0-0.34,0.179-0.518,0.523l-4.229,4.267l13.852,13.374l8.063-6.4
								c5.933-5.117,10.909-14.086,11.031-18.661C473.557,210.175,468.26,201.469,450.963,192.991z"/>
							<path style="fill:none;stroke:#131430;stroke-miterlimit:10;" d="M427.882,248.562c0,0,8.286-2.967,9.616-1.534
								c1.33,1.432-3.416,3.171-3.416,3.171s5.462-2.743,6.689-1.781c1.228,0.963-2.942,4.175-2.942,4.175s7.238-1.759,6.215,0.788
								c-1.023,2.547-6.039,5.002-8.032,5.82c0,0-6.912,0.991-10.087-6.608c-3.175-7.6,0,0,0,0l-0.438-9.552l4.11-3.811"/>
							<g>
								<line style="fill:none;stroke:#131430;stroke-miterlimit:10;" x1="459.643" y1="236.965" x2="444.159" y2="224.435"/>
								<line style="fill:none;stroke:#131430;stroke-miterlimit:10;" x1="437.95" y1="230.7" x2="452.024" y2="216.5"/>
							</g>
							<path style="fill:none;stroke:#131430;stroke-miterlimit:10;" d="M398.649,177.568c4.477,0.205,23.299-1.149,51.533,14.975
								c20.718,11.832,29.427,20.38,18.449,34.925c0,0-4.324,6.965-14.339,14.094c-10.014,7.128-15.534,10.257-15.534,10.257"/>
							<polyline style="fill:none;stroke:#131430;stroke-miterlimit:10;" points="380.743,204.794 411.821,204.794 423.449,206.952 
								450.419,218.119 							"/>
							<line style="fill:none;stroke:#131430;stroke-miterlimit:10;" x1="440.44" y1="228.187" x2="454.293" y2="241.561"/>
						</g>
					</g>
				</g>
				<g>
					<g>
						<g>
							<polygon style="fill:#F35530;" points="376.361,153.444 372.511,152.443 376.272,147.676 							"/>
							<path style="fill:#FFC524;stroke:#131430;stroke-miterlimit:10;" d="M376.353,144.274c0.039-5.479,4.009-9.934,8.821-9.899
								l7.239,0.052c4.812,0.034,8.717,4.545,8.678,10.024l-0.08,11.221c-0.002,0.316-0.021,0.628-0.049,0.937
								c0.076,0.331,0.119,0.675,0.116,1.029l-0.049,6.831l-0.003,0.381l-0.01,1.353h0.004l-0.043,7.638
								c-0.018,3.144-2.06,5.698-4.539,5.676l-2.872-0.026c-2.479-0.022-4.492-2.613-4.474-5.757l0.011-2.018
								c-0.001-0.041-0.012-0.079-0.011-0.12l0.043-6.045l-4.185-0.03c-4.812-0.034-8.718-4.545-8.679-10.024L376.353,144.274z"/>
							<path style="fill:#131430;" d="M375.737,154.963c0,0-0.436,3.834,2.326,7.593s8.547,3.331,11.432,2.992
								c5.217-0.614,5.358-5.531,6.138-8.977c0.921-4.066,1.564-9.911,1.564-9.911s-2.852-17.887-3.543,0.32
								c-0.262,6.908-3.788,9.724-5.464,9.964C384.507,157.473,376.35,151.203,375.737,154.963z"/>
							<g>
								<path style="fill:#131430;" d="M384.705,149.751c0.138,0.88-0.464,1.704-1.343,1.842c-0.88,0.138-1.704-0.464-1.842-1.343
									c-0.138-0.88,0.464-1.704,1.343-1.842C383.742,148.27,384.567,148.871,384.705,149.751z"/>
								<g>
									<path style="fill:#FFFFFF;" d="M376.917,160.814c0,0,1.422,0.863,3.335-1.907l-4.164-0.271l0.579,1.564L376.917,160.814z"
										/>
								</g>
							</g>
							<path style="fill:#131430;" d="M401.041,162.921c0,0,10.939,1.041,13.761-11.166c2.822-12.206-4.017-23.526-18.258-25.17
								c0,0-9.292-10.772-16.879-7.12c-7.587,3.651,3.447,13.146,3.447,13.146s-8.16-7.851-10.601-4.564
								c-2.441,3.286,2.691,10.225,7.154,11.137c4.463,0.913,14.414-0.913,16.057,4.199c1.643,5.112,0.365,9.585,3.834,11.881
								c2.348,1.554,1.522,2.373,1.522,2.373L401.041,162.921z"/>
							<g>
								<path style="fill:#FFC524;" d="M410.175,154.526c-0.022,3.157-2.621,5.698-5.804,5.675c-3.183-0.023-5.745-2.6-5.722-5.757
									c0.023-3.157,2.621-5.698,5.804-5.675C407.635,148.792,410.197,151.369,410.175,154.526z"/>
								<g>
									<g>
										<path style="fill:#131430;" d="M401.978,155.217c-0.007-0.122-0.002-0.245,0.006-0.366
											c0.004-0.061,0.009-0.121,0.015-0.181c0.003-0.032,0.008-0.064,0.011-0.096c0.009-0.09-0.02,0.142-0.017,0.123
											c0.005-0.027,0.008-0.055,0.012-0.083c0.025-0.16,0.059-0.319,0.101-0.475c0.022-0.081,0.047-0.162,0.075-0.242
											c0.014-0.041,0.029-0.082,0.045-0.123c0.072-0.188-0.065,0.135,0.002-0.008c0.083-0.177,0.174-0.348,0.287-0.508
											c0.014-0.019,0.03-0.038,0.042-0.058c0.044-0.07-0.121,0.146-0.046,0.059c0.032-0.037,0.062-0.075,0.095-0.112
											c0.074-0.082,0.152-0.16,0.236-0.231c0.02-0.017,0.056-0.038,0.071-0.059c-0.002,0.003-0.149,0.107-0.065,0.05
											c0.044-0.03,0.086-0.062,0.131-0.091c0.103-0.066,0.211-0.122,0.32-0.176c0.135-0.067-0.028,0.029-0.036,0.014
											c0,0.001,0.096-0.037,0.1-0.038c0.069-0.025,0.14-0.047,0.211-0.067c0.075-0.021,0.15-0.039,0.226-0.054
											c0.033-0.007,0.066-0.013,0.099-0.019c0.074-0.013,0.181,0.014,0.002-0.003c0.171,0.016,0.364-0.031,0.538-0.03
											c0.203,0.001,0.405,0.015,0.607,0.038c0.359,0.04,0.704-0.345,0.688-0.688c-0.018-0.407-0.303-0.645-0.688-0.688
											c-1.253-0.139-2.64,0.133-3.481,1.147c-0.586,0.708-0.866,1.567-0.949,2.472c-0.015,0.163-0.025,0.329-0.016,0.493
											c0.02,0.359,0.302,0.705,0.688,0.688C401.645,155.89,401.999,155.602,401.978,155.217L401.978,155.217z"/>
									</g>
								</g>
							</g>
						</g>
					</g>
					<g>
						<path style="fill:#F35530;" d="M369.981,200.726l-7.949,58.441l64.298,1.364l-3.155-61.839c0,0-15.038-11.048-15.651-11.355
							c-0.614-0.307-37.543-1.074-37.543-1.074V200.726z"/>
						<path style="fill:#F35530;stroke:#131430;stroke-miterlimit:10;" d="M401.625,182.099h-12.537
							c-2.41,0-4.365-1.954-4.365-4.365v-3.576c0-2.411,1.954-4.365,4.365-4.365h12.537c2.41,0,4.364,1.954,4.364,4.365v3.576
							C405.99,180.145,404.036,182.099,401.625,182.099z"/>
					</g>
					<g>
						<polyline style="fill:none;stroke:#131430;stroke-miterlimit:10;" points="369.981,202.952 365.685,233.218 362.032,259.167 
							426.331,260.531 426.331,257.969 423.176,202.119 						"/>
					</g>
				</g>
			</g>
		</g>
	</g>
</g>
</svg>
